<?xml version="1.0" standalone="no"?>
<!DOCTYPE svg PUBLIC "-//W3C//DTD SVG 20010904//EN"
 "http://www.w3.org/TR/2001/REC-SVG-20010904/DTD/svg10.dtd">
<svg version="1.0" xmlns="http://www.w3.org/2000/svg"
 width="300.000000pt" height="138.000000pt" viewBox="0 0 300.000000 138.000000"
 preserveAspectRatio="xMidYMid meet">

<g transform="translate(0.000000,138.000000) scale(0.100000,-0.100000)"
fill="#127384" stroke="none">
<path d="M1020 1373 c0 -5 216 -7 479 -5 451 2 480 1 484 -15 4 -14 5 -13 6 5
l1 22 -485 0 c-267 0 -485 -3 -485 -7z"/>
<path d="M1095 1320 l29 -30 381 0 381 0 29 30 29 30 -439 0 -439 0 29 -30z"/>
<path d="M1041 1246 c-2 -70 0 -76 28 -108 l30 -33 0 80 c0 70 -3 83 -24 108
-13 15 -26 27 -28 27 -2 0 -5 -33 -6 -74z"/>
<path d="M1933 1291 c-19 -25 -23 -43 -23 -107 l0 -78 30 29 c32 31 37 65 22
148 l-7 39 -22 -31z"/>
<path d="M1140 1150 l0 -100 -314 0 -314 0 -81 -155 c-45 -85 -81 -157 -81
-160 0 -3 147 -5 328 -5 180 0 357 -3 395 -7 l67 -6 0 -103 0 -104 365 0 365
0 0 105 0 105 313 0 312 0 83 165 82 165 -389 0 -389 0 -6 23 c-3 12 -6 57 -6
100 l0 77 -365 0 -365 0 0 -100z"/>
<path d="M297 1163 c-5 -7 268 -7 598 0 72 1 -33 4 -232 5 -199 1 -364 -1
-366 -5z"/>
<path d="M2160 1163 c448 -7 830 -7 830 0 0 4 -226 6 -502 5 -277 -1 -424 -4
-328 -5z"/>
<path d="M185 890 c-69 -138 -122 -250 -119 -250 4 0 59 18 123 41 l116 40 86
168 85 168 -83 42 -83 41 -125 -250z"/>
<path d="M440 1110 l55 -29 294 -1 295 0 -29 30 -29 30 -320 0 -321 -1 55 -29z"/>
<path d="M1955 1110 l-29 -30 380 0 380 0 84 29 85 29 -436 1 -435 1 -29 -30z"/>
<path d="M2810 1089 l-115 -40 -81 -168 -81 -168 83 -41 84 -42 120 247 c66
135 120 248 120 250 0 6 -14 2 -130 -38z"/>
<path d="M221 659 c-46 -16 -87 -31 -90 -35 -3 -3 197 -3 444 1 l450 7 30 29
30 29 -390 -1 -390 -1 -84 -29z"/>
<path d="M1955 660 l29 -30 320 0 321 1 -55 29 -55 29 -294 1 -295 0 29 -30z"/>
<path d="M1073 636 c-20 -24 -23 -41 -23 -110 l0 -81 25 26 c24 24 26 31 23
109 l-3 85 -22 -29z"/>
<path d="M1910 579 c0 -77 2 -88 23 -107 13 -12 26 -22 30 -22 4 0 7 34 7 75
0 69 -2 77 -30 107 l-29 33 -1 -86z"/>
<path d="M2350 610 l-365 -5 362 -3 c233 -1 364 2 368 8 3 6 5 9 3 8 -2 -2
-167 -5 -368 -8z"/>
<path d="M873 603 l147 -4 0 -104 0 -105 488 2 487 3 -482 2 -483 3 0 105 0
105 -152 -2 -153 -2 148 -3z"/>
<path d="M1095 450 l-29 -30 439 0 439 0 -29 30 -29 30 -381 0 -381 0 -29 -30z"/>
<path d="M38 263 c-24 -6 -33 -43 -33 -139 1 -115 0 -114 156 -114 107 0 129
3 129 15 0 11 -20 15 -97 17 l-98 3 -3 93 -3 92 96 0 c88 0 95 1 95 20 0 19
-6 20 -112 19 -62 -1 -121 -3 -130 -6z"/>
<path d="M330 140 l0 -130 40 0 40 0 0 60 0 61 78 -3 77 -3 3 -57 3 -58 39 0
40 0 0 130 0 130 -39 0 -40 0 -3 -52 -3 -53 -77 -3 -78 -3 0 56 0 55 -40 0
-40 0 0 -130z"/>
<path d="M725 256 c-17 -12 -21 -29 -24 -105 -4 -127 3 -136 107 -144 101 -8
182 1 182 19 0 11 -21 14 -94 14 -103 0 -120 8 -114 57 l3 28 98 3 c76 2 97 6
97 17 0 11 -21 15 -97 17 l-98 3 0 30 0 30 115 3 116 3 45 -108 44 -108 70 0
70 0 52 120 c28 66 52 123 52 128 1 4 -11 7 -26 7 -26 0 -31 -7 -73 -112 -25
-61 -50 -113 -56 -115 -6 -2 -31 46 -55 109 l-45 113 -175 3 c-139 2 -179 0
-194 -12z"/>
<path d="M1377 263 c-4 -3 -7 -62 -7 -130 l0 -123 40 0 40 0 0 110 0 110 80 0
80 0 0 -35 0 -35 -60 0 c-52 0 -60 -2 -60 -19 0 -11 27 -43 64 -76 63 -54 66
-56 116 -53 l52 3 -66 48 c-36 27 -66 53 -66 58 0 5 17 9 38 9 49 0 62 14 62
66 0 66 -18 74 -176 74 -72 0 -134 -3 -137 -7z"/>
<path d="M1764 260 c-17 -7 -22 -20 -27 -65 -7 -66 1 -154 16 -172 7 -9 48
-13 142 -13 111 0 135 3 146 17 10 11 14 46 14 115 0 129 1 128 -154 127 -64
0 -125 -4 -137 -9z m207 -42 c7 -65 6 -145 -2 -160 -9 -16 -20 -18 -77 -16
l-67 3 -3 93 -3 92 76 0 c53 0 75 -4 76 -12z"/>
<path d="M2110 140 l0 -130 135 0 c112 0 135 3 135 15 0 11 -19 15 -92 17
l-93 3 -3 113 -3 112 -39 0 -40 0 0 -130z"/>
<path d="M2420 250 c-17 -17 -20 -33 -20 -108 0 -132 1 -132 161 -132 107 0
129 3 129 15 0 11 -20 15 -102 17 l-103 3 0 40 0 40 93 3 c72 2 92 6 92 17 0
11 -20 15 -92 17 l-93 3 0 30 0 30 163 3 162 2 0 -110 0 -110 40 0 40 0 0 110
0 110 55 0 c48 0 55 2 55 20 0 20 -7 20 -280 20 -267 0 -281 -1 -300 -20z"/>
</g>
</svg>
