<?xml version="1.0" standalone="no"?>
<!DOCTYPE svg PUBLIC "-//W3C//DTD SVG 20010904//EN"
 "http://www.w3.org/TR/2001/REC-SVG-20010904/DTD/svg10.dtd">
<svg version="1.0" xmlns="http://www.w3.org/2000/svg"
 width="444.000000pt" height="543.000000pt" viewBox="0 0 444.000000 543.000000"
 preserveAspectRatio="xMidYMid meet">

<g transform="translate(0.000000,543.000000) scale(0.100000,-0.100000)"
fill="#127384" stroke="none">
<path d="M2159 5366 c-2 -3 -18 -7 -34 -10 -148 -23 -188 -30 -245 -43 -36 -7
-99 -20 -140 -29 -41 -8 -99 -21 -128 -30 -58 -17 -303 -79 -367 -94 -22 -4
-76 -18 -120 -30 -114 -31 -345 -84 -435 -100 -47 -8 -173 -33 -250 -49 -129
-28 -192 -45 -263 -74 -67 -27 -77 -34 -78 -56 -1 -49 -9 -126 -14 -139 -3 -7
2 -26 10 -42 16 -32 24 -31 93 4 36 18 261 81 452 126 19 4 60 15 90 23 30 9
125 30 210 47 85 17 161 35 170 39 8 4 42 13 75 20 33 6 96 20 140 30 44 10
116 26 160 36 44 9 94 20 110 25 17 4 57 11 90 15 33 4 79 14 103 22 23 7 80
22 125 33 45 10 115 28 154 39 78 23 122 20 258 -13 65 -16 219 -53 275 -66
77 -17 271 -70 280 -75 4 -3 30 -10 57 -15 26 -5 82 -19 123 -31 41 -11 116
-31 165 -44 205 -53 293 -78 345 -95 87 -29 207 -60 234 -60 14 0 35 -4 48 -9
24 -9 74 -23 145 -41 23 -6 49 -17 57 -26 14 -13 17 -12 29 13 8 15 18 65 21
111 l7 83 -30 10 c-17 6 -31 15 -31 20 0 5 -7 9 -16 9 -16 0 -102 26 -139 42
-11 5 -29 10 -40 13 -67 14 -173 40 -255 61 -52 14 -111 27 -130 30 -19 3 -84
19 -145 36 -60 17 -130 35 -155 39 -50 7 -516 126 -625 159 -146 44 -202 59
-270 69 -38 6 -79 13 -90 17 -11 3 -23 3 -26 0z m141 -67 c25 -5 68 -16 95
-24 237 -69 316 -90 420 -114 66 -16 152 -37 190 -49 39 -11 95 -25 125 -32
30 -6 105 -25 165 -41 61 -16 133 -34 160 -40 28 -6 73 -17 100 -24 81 -22
126 -33 190 -45 33 -7 69 -16 80 -20 11 -5 43 -14 70 -20 153 -38 162 -46 156
-152 -1 -24 -3 -26 -28 -18 -16 5 -46 13 -68 19 -92 22 -127 31 -275 71 -85
23 -182 48 -215 56 -33 9 -90 25 -127 35 -38 11 -78 22 -90 24 -12 3 -50 13
-83 24 -33 10 -85 25 -115 32 -30 7 -59 16 -65 19 -5 4 -39 12 -75 19 -95 18
-147 31 -218 53 -34 11 -73 21 -85 23 -12 1 -40 7 -62 13 -106 29 -259 63
-304 69 -28 3 -51 10 -51 14 0 16 -64 9 -150 -17 -47 -14 -119 -32 -160 -40
-41 -8 -83 -19 -92 -24 -10 -5 -58 -16 -108 -24 -50 -9 -95 -18 -100 -21 -9
-6 -33 -11 -205 -45 -127 -25 -236 -51 -350 -85 -85 -24 -146 -38 -240 -51
-22 -4 -47 -10 -55 -14 -8 -4 -42 -13 -75 -20 -63 -12 -68 -13 -210 -54 -49
-15 -130 -38 -180 -52 -50 -14 -97 -27 -105 -30 -13 -4 -14 6 -12 64 3 66 5
70 35 84 34 16 138 43 302 78 55 11 127 27 160 35 33 8 83 18 110 24 44 9 150
31 295 63 25 5 61 13 80 18 19 5 71 17 115 26 44 9 87 20 95 24 8 4 34 10 57
14 23 3 75 13 115 21 105 24 230 52 333 75 50 12 101 23 115 24 30 5 153 32
195 45 32 9 71 6 145 -10z"/>
<path d="M2095 4984 c-27 -7 -95 -23 -150 -35 -55 -12 -120 -27 -145 -34 -25
-8 -72 -19 -105 -25 -33 -7 -123 -28 -200 -47 -77 -19 -165 -41 -195 -48 -30
-7 -71 -18 -90 -23 -19 -6 -63 -18 -98 -26 -34 -9 -90 -24 -125 -35 -34 -10
-89 -24 -122 -31 -61 -12 -155 -34 -210 -50 -16 -5 -48 -13 -70 -19 -22 -5
-76 -19 -120 -30 -44 -11 -125 -30 -180 -42 -55 -11 -109 -25 -120 -29 -11 -4
-35 -13 -52 -20 -18 -7 -33 -13 -34 -14 -1 0 -5 -98 -10 -216 -5 -118 -13
-246 -18 -285 -12 -83 -13 -768 -1 -840 5 -27 11 -63 14 -80 4 -16 11 -79 16
-140 6 -60 13 -121 17 -135 7 -27 9 -38 18 -90 3 -19 21 -80 40 -135 18 -55
45 -143 59 -195 42 -152 48 -171 81 -245 18 -38 40 -91 50 -117 10 -26 24 -53
31 -59 8 -6 14 -16 14 -21 0 -15 161 -340 181 -367 11 -13 16 -27 13 -32 -3
-5 -1 -9 4 -9 5 0 21 -18 36 -40 15 -22 33 -48 41 -58 8 -9 25 -31 37 -48 13
-17 60 -78 106 -135 45 -57 104 -131 130 -164 26 -33 65 -79 88 -102 22 -24
39 -45 36 -48 -3 -3 1 -5 9 -5 8 0 25 -18 39 -40 14 -22 28 -40 33 -40 9 0
287 -278 287 -287 0 -10 92 -94 145 -133 28 -20 56 -44 64 -53 7 -10 18 -17
23 -17 6 0 26 -13 44 -30 19 -16 45 -32 58 -36 13 -3 27 -15 29 -26 4 -14 11
-19 22 -14 10 3 14 2 10 -5 -4 -6 -1 -9 6 -8 20 3 49 -11 49 -24 0 -5 -9 -2
-20 8 -11 10 -20 13 -20 7 0 -13 13 -22 40 -27 11 -2 40 -20 64 -39 24 -20 46
-36 50 -36 3 0 25 -12 47 -26 40 -25 90 -27 104 -3 4 5 14 9 23 9 22 0 160 70
209 106 21 16 59 46 84 69 25 22 70 57 100 78 30 20 66 47 79 60 39 34 171
150 209 183 107 90 201 184 377 374 84 92 179 212 209 265 15 28 42 73 59 100
95 154 146 242 146 252 0 5 25 58 55 117 30 59 55 111 55 116 0 5 14 39 30 75
17 36 30 69 30 74 0 5 22 62 49 127 58 144 107 285 116 339 4 22 13 60 20 85
22 77 53 269 65 405 6 72 15 159 20 195 6 36 10 129 10 208 0 79 2 147 4 151
7 11 17 188 21 381 3 188 -20 608 -36 651 -9 22 -19 28 -56 33 -25 3 -51 10
-57 15 -6 5 -24 11 -41 14 -46 9 -184 42 -245 59 -30 9 -100 26 -155 38 -55
12 -134 31 -175 42 -41 11 -102 26 -135 33 -33 8 -73 18 -88 24 -15 6 -38 13
-50 16 -34 7 -262 63 -352 86 -44 11 -96 24 -115 29 -19 5 -59 16 -89 24 -29
9 -60 16 -69 16 -9 0 -29 4 -46 9 -43 13 -172 41 -214 47 -19 2 -37 6 -41 8
-3 2 -28 -3 -56 -10z m275 -89 c47 -9 112 -23 145 -32 33 -8 76 -19 95 -23 19
-5 69 -18 110 -29 41 -11 158 -41 260 -66 102 -26 208 -52 235 -60 72 -19 173
-44 225 -56 57 -13 103 -24 159 -39 24 -7 51 -13 60 -15 9 -2 42 -10 75 -19
32 -9 62 -13 67 -11 4 3 10 1 14 -5 3 -5 15 -10 26 -10 10 0 61 -14 113 -31
l93 -30 7 -52 c3 -29 6 -71 6 -94 l0 -42 -72 34 c-96 46 -492 183 -703 244
-74 21 -322 70 -390 77 -39 4 -95 13 -125 21 -8 2 -41 5 -72 6 -40 1 -58 5
-58 14 0 9 -20 13 -72 13 -40 1 -217 2 -393 3 -176 2 -363 0 -415 -4 -140 -11
-426 -44 -470 -55 -14 -3 -41 -8 -60 -11 -19 -3 -57 -11 -85 -18 -27 -8 -88
-21 -135 -30 -47 -9 -89 -21 -95 -26 -5 -5 -18 -9 -29 -9 -16 0 -135 -33 -206
-58 -8 -3 -18 -4 -22 -4 -5 1 -8 -2 -8 -7 0 -5 -10 -7 -22 -3 -14 3 -19 2 -14
-6 7 -12 2 -13 -46 -15 -13 -1 -25 -4 -28 -7 -3 -3 -34 -16 -70 -29 -36 -12
-74 -26 -85 -30 -11 -5 -54 -21 -95 -36 -41 -16 -96 -39 -122 -51 -26 -13 -50
-24 -53 -24 -7 0 -6 96 1 141 6 35 9 37 63 49 31 6 65 14 76 16 11 3 56 13
100 24 96 22 236 57 285 70 19 5 76 19 125 30 50 12 106 26 126 31 20 5 50 9
66 9 16 0 33 4 38 9 6 5 44 19 85 30 41 11 100 27 130 35 30 8 82 20 115 26
33 7 69 16 80 21 23 9 307 79 345 84 33 4 79 15 110 25 14 4 52 13 85 20 33 6
78 16 100 21 22 5 55 12 74 14 18 2 35 6 37 8 2 2 32 -2 67 -9 34 -6 100 -19
147 -29z m-410 -358 c0 -7 -6 -21 -13 -31 -12 -17 -14 -17 -37 2 -32 26 -54
18 -69 -24 -11 -29 -17 -34 -45 -34 -40 0 -56 -16 -59 -60 -2 -36 -46 -76
-107 -100 -64 -24 -210 -149 -210 -180 0 -10 16 -35 35 -56 25 -27 35 -47 35
-71 0 -42 33 -77 63 -69 12 4 46 11 75 16 29 5 57 12 63 16 16 10 159 -17 159
-30 0 -24 -50 -147 -90 -222 -80 -147 -110 -185 -179 -225 -36 -21 -82 -53
-103 -73 -34 -33 -78 -48 -78 -28 0 8 -23 21 -72 41 -13 5 -45 19 -71 30 -61
27 -132 41 -212 41 -86 0 -88 -3 -135 -205 -12 -49 -37 -128 -56 -173 -41
-100 -58 -195 -49 -277 11 -106 25 -124 81 -109 43 11 84 144 84 269 0 45 5
69 18 86 10 13 21 32 25 42 3 9 10 17 15 17 5 0 26 34 48 76 56 109 101 122
147 40 l24 -43 -23 -45 c-23 -44 -24 -45 -81 -51 -82 -7 -109 -23 -135 -76
-19 -39 -22 -63 -23 -161 0 -100 4 -126 29 -200 43 -129 64 -167 129 -237 70
-75 115 -93 172 -69 41 17 59 55 50 102 -3 18 -35 72 -70 121 -36 48 -74 107
-85 131 -19 41 -41 147 -33 156 5 5 76 -30 127 -61 46 -29 137 -61 201 -70 25
-3 45 -10 45 -15 0 -14 107 -125 165 -170 28 -22 75 -63 105 -92 30 -28 72
-62 93 -76 l38 -25 -5 -64 c-3 -35 -1 -82 5 -104 10 -36 65 -166 90 -210 5
-10 24 -44 41 -75 17 -31 39 -68 49 -80 16 -21 16 -26 4 -38 -11 -11 -26 -12
-72 -5 -219 34 -277 44 -348 61 -44 10 -111 28 -150 39 l-70 20 -17 -20 c-33
-39 -21 -90 33 -152 31 -35 39 -38 99 -43 62 -4 135 -19 225 -43 22 -6 69 -15
105 -21 36 -5 112 -19 170 -30 58 -11 130 -22 160 -23 51 -2 55 0 58 21 4 28
27 39 47 22 20 -17 19 -93 -2 -133 -9 -18 -61 -78 -116 -134 -146 -150 -184
-203 -192 -275 -6 -46 -4 -64 10 -84 15 -23 22 -26 56 -21 40 5 130 47 162 75
9 8 17 28 17 43 0 50 65 147 124 184 55 34 136 103 172 146 34 40 47 100 25
113 -5 4 -12 25 -16 49 -4 23 -10 46 -13 52 -3 5 -7 23 -9 40 -3 32 -3 33 103
152 30 33 68 76 84 95 16 18 33 42 36 53 12 38 25 47 44 30 21 -19 42 -12 55
17 15 32 40 37 32 7 -17 -62 -40 -229 -34 -235 4 -4 19 -4 34 2 19 6 39 32 69
89 24 44 45 85 48 90 2 6 10 2 18 -9 18 -23 52 -15 73 18 9 13 22 60 30 104 7
44 21 94 29 111 9 16 16 36 16 44 0 7 14 29 31 48 48 52 96 130 107 174 19 71
34 234 37 409 4 152 6 173 23 193 17 19 18 25 7 40 -11 15 -17 15 -39 5 -36
-16 -79 -16 -72 1 2 6 12 37 21 67 9 30 20 64 25 75 13 27 32 117 26 122 -2 3
2 25 9 50 12 40 12 50 -1 75 -8 15 -19 28 -24 28 -4 0 -26 -27 -47 -59 -21
-32 -45 -61 -54 -64 -11 -3 -18 -20 -21 -56 -3 -29 -12 -59 -21 -68 -14 -14
-15 -12 -11 23 2 22 4 59 5 84 1 25 10 62 20 82 38 74 15 92 -39 30 -90 -103
-132 -171 -132 -216 0 -13 -3 -32 -6 -41 -5 -13 -9 -14 -15 -3 -6 8 -7 -1 -3
-22 4 -23 2 -31 -4 -22 -24 35 -30 -296 -7 -423 22 -122 19 -182 -10 -237 -14
-26 -25 -53 -25 -61 0 -17 -38 -53 -66 -61 -19 -6 -28 4 -67 71 -44 77 -60 94
-211 223 -158 135 -308 285 -332 332 -13 26 -24 50 -24 53 0 8 33 -2 87 -26
23 -11 51 -19 62 -19 27 0 35 44 22 116 -6 32 -11 59 -11 62 0 2 8 1 19 -3 10
-3 30 -1 45 5 l27 10 -21 40 -21 41 21 17 20 17 -19 37 -20 36 21 14 c21 14
21 14 -11 50 -27 31 -29 37 -16 48 19 16 19 35 -1 66 -23 35 -13 38 26 9 41
-31 90 -34 90 -6 0 10 -6 24 -14 30 -8 7 -18 27 -21 44 -4 18 -21 47 -38 65
-25 26 -31 39 -29 70 2 21 -1 50 -7 65 -10 26 -9 27 23 27 68 0 72 60 8 116
l-37 32 22 24 c22 24 22 24 3 55 -10 17 -16 34 -13 37 3 3 2 21 -1 41 -6 28
-14 38 -41 50 -19 7 -35 16 -35 19 0 3 19 23 43 45 40 38 41 41 25 57 -12 12
-36 19 -75 20 -101 5 -120 12 -142 49 -16 28 -27 35 -51 35 -16 0 -30 -4 -30
-10 0 -29 -153 9 -192 48 l-20 20 125 1 c69 1 165 -3 214 -9 48 -6 131 -13
183 -15 118 -5 198 -12 319 -30 52 -8 98 -12 102 -9 5 3 9 0 9 -5 0 -6 11 -11
25 -11 13 0 63 -9 110 -20 47 -11 101 -20 119 -20 18 0 36 -3 39 -7 4 -3 22
-8 39 -10 18 -1 42 -7 53 -12 11 -5 54 -21 95 -34 141 -47 304 -108 387 -148
34 -16 66 -29 71 -29 5 0 17 -9 27 -20 18 -20 19 -89 0 -415 -11 -186 -11
-284 -1 -278 5 4 7 -1 2 -12 -3 -10 -9 -50 -11 -89 -3 -39 -7 -84 -10 -101 -2
-16 -7 -68 -11 -115 -7 -96 -9 -109 -18 -165 -4 -22 -11 -67 -16 -100 -6 -33
-13 -73 -16 -90 -3 -16 -9 -59 -14 -95 -45 -329 -123 -586 -276 -908 -24 -52
-44 -96 -44 -98 0 -2 -12 -23 -27 -47 -15 -23 -28 -44 -28 -47 -4 -19 -163
-263 -192 -295 -34 -37 -95 -125 -86 -125 4 -1 -1 -8 -13 -18 -11 -9 -22 -21
-24 -27 -4 -12 -48 -70 -72 -96 -10 -11 -15 -19 -11 -19 4 0 -2 -7 -13 -16
-10 -8 -13 -12 -5 -8 9 5 12 3 7 -4 -4 -7 -14 -12 -22 -12 -8 0 -13 -3 -11 -7
2 -5 -33 -44 -77 -88 -44 -44 -76 -73 -71 -65 8 15 -23 -13 -129 -115 -70 -67
-104 -94 -111 -87 -3 3 -5 1 -5 -4 0 -5 -27 -29 -60 -53 -33 -24 -60 -48 -60
-52 0 -5 -6 -9 -14 -9 -8 0 -16 -4 -18 -9 -4 -11 -213 -151 -226 -151 -5 0
-20 -9 -34 -19 -13 -11 -45 -30 -70 -44 -44 -23 -45 -23 -78 -6 -18 10 -50 31
-70 48 -20 16 -52 36 -71 44 -19 8 -50 30 -69 47 -19 17 -78 63 -130 102 -92
68 -281 252 -537 524 -128 135 -200 225 -248 309 -16 28 -52 84 -80 125 -27
41 -55 84 -62 95 -69 115 -94 157 -115 195 -14 25 -48 83 -75 130 -28 47 -65
119 -83 160 -18 41 -49 111 -70 155 -21 44 -48 107 -60 140 -12 33 -26 68 -31
77 -5 10 -9 28 -9 41 0 13 -4 27 -9 33 -16 18 -59 180 -80 299 -11 66 -23 179
-27 250 -4 72 -8 148 -9 170 -23 382 -24 490 -8 660 14 161 20 210 30 245 3
14 5 31 4 38 -1 6 0 12 2 12 2 0 75 25 163 56 87 31 173 59 189 64 17 4 53 15
80 24 28 9 62 16 77 16 14 0 46 8 70 18 40 17 128 42 223 62 40 9 62 13 280
50 66 11 161 29 210 40 50 11 152 23 230 26 77 4 142 8 144 10 10 10 41 3 41
-9z m-15 -245 c23 -17 58 -62 48 -62 -15 0 -73 49 -73 61 0 11 11 11 25 1z
m385 -82 c11 -7 12 -14 4 -27 -17 -28 -31 -26 -36 7 -5 31 5 37 32 20z m1627
-92 c-3 -8 -6 -5 -6 6 -1 11 2 17 5 13 3 -3 4 -12 1 -19z m-2367 8 c0 -3 -4
-8 -10 -11 -5 -3 -10 -1 -10 4 0 6 5 11 10 11 6 0 10 -2 10 -4z m550 -81 c0
-8 -4 -15 -10 -15 -5 0 -7 7 -4 15 4 8 8 15 10 15 2 0 4 -7 4 -15z m1817 -142
c-2 -21 -4 -6 -4 32 0 39 2 55 4 38 2 -18 2 -50 0 -70z m-1927 -13 c0 -34 -92
-189 -117 -197 -17 -6 2 56 34 115 53 96 83 126 83 82z m1930 -71 c0 -16 -4
-29 -10 -29 -5 0 -10 16 -10 36 0 21 4 33 10 29 6 -3 10 -19 10 -36z m-2 -64
c-1 -14 -6 -25 -10 -25 -4 0 -8 11 -8 25 0 14 4 25 10 25 5 0 9 -11 8 -25z
m-11 -72 c-3 -10 -5 -4 -5 12 0 17 2 24 5 18 2 -7 2 -21 0 -30z m-2010 -184
l28 -12 -28 -8 c-16 -4 -35 -6 -43 -3 -50 15 -49 15 -34 24 20 13 43 12 77 -1z
m150 -93 c-9 -23 -37 -20 -37 3 0 21 20 33 34 20 5 -4 6 -15 3 -23z m-947 -10
c0 -3 -4 -8 -10 -11 -5 -3 -10 -1 -10 4 0 6 5 11 10 11 6 0 10 -2 10 -4z
m-120 -117 c-7 -22 -17 -39 -22 -39 -5 0 -7 3 -5 8 3 4 11 27 17 52 7 25 15
39 18 31 2 -7 -1 -31 -8 -52z m510 -51 c0 -61 -54 -181 -84 -186 -16 -3 -17 1
-11 30 3 18 15 61 27 96 28 89 68 124 68 60z m664 -163 c11 -27 29 -66 41 -85
11 -19 26 -48 33 -64 11 -25 11 -28 -3 -22 -9 3 -21 6 -26 6 -22 0 -86 173
-89 246 -3 70 2 80 14 24 6 -30 20 -77 30 -105z m-408 -292 c49 -73 114 -178
114 -187 0 -11 -66 39 -102 77 -16 16 -28 33 -28 37 0 5 -4 10 -8 12 -17 7
-53 70 -48 83 10 27 45 16 72 -22z m-666 -61 c0 -15 -2 -15 -10 -2 -13 20 -13
33 0 25 6 -3 10 -14 10 -23z m1120 -24 c0 -26 -4 -38 -9 -32 -17 17 -17 74 -1
74 6 0 10 -19 10 -42z m954 -125 c-3 -21 -7 -52 -10 -69 -4 -30 -76 -124 -94
-124 -5 0 8 33 28 73 20 39 45 91 55 115 10 23 20 42 22 42 2 0 2 -17 -1 -37z
m-1112 -292 c69 -69 107 -101 119 -101 4 0 11 -9 14 -20 3 -11 14 -20 23 -20
26 0 41 -32 41 -86 0 -46 47 -289 69 -361 8 -25 8 -33 -2 -33 -18 0 -40 73
-61 210 -3 19 -10 59 -15 89 -6 30 -10 68 -10 85 0 17 -6 42 -13 55 -13 25
-93 89 -114 90 -6 1 -15 10 -18 21 -3 11 -11 20 -16 20 -5 0 -31 20 -57 43
-26 24 -55 47 -64 50 -18 6 -24 28 -12 40 11 11 47 -14 116 -82z m328 67 c0
-26 -42 -138 -52 -138 -3 0 2 24 13 52 10 29 19 65 19 80 0 16 5 28 10 28 6 0
10 -10 10 -22z m378 -68 c2 -12 -2 -27 -10 -31 -20 -13 -27 -11 -23 9 2 9 4
25 4 35 1 26 25 15 29 -13z m-360 -172 c-3 -22 -4 -23 -15 -3 -7 14 -8 27 0
45 10 25 10 25 14 3 3 -13 3 -33 1 -45z m-108 22 c-6 -12 -14 -19 -17 -17 -2
3 1 15 7 27 6 12 14 19 17 17 2 -3 -1 -15 -7 -27z m110 -289 l0 -36 -20 25
c-20 25 -25 51 -13 63 13 14 33 -17 33 -52z m60 -370 c0 -11 -49 -60 -73 -73
-14 -7 -11 2 12 36 28 41 61 61 61 37z"/>
<path d="M1734 1320 c-53 -34 -60 -70 -38 -180 3 -19 14 -48 24 -65 28 -48 42
-103 35 -136 -9 -39 -57 -69 -110 -69 -48 0 -61 7 -74 41 -10 28 1 49 25 49 6
0 14 7 18 15 3 8 13 15 23 15 14 1 12 4 -7 14 -48 25 -76 27 -103 6 -14 -11
-30 -20 -36 -20 -6 0 -11 -19 -11 -45 0 -37 6 -51 36 -84 46 -52 102 -65 191
-47 62 13 82 23 115 60 41 44 50 159 18 219 -27 50 -53 127 -45 135 3 3 19 -9
35 -26 33 -37 40 -38 69 -14 20 16 20 20 7 57 -30 84 -106 117 -172 75z"/>
<path d="M2950 1308 c-14 -6 -72 -12 -130 -13 -143 -3 -183 -21 -225 -97 -12
-22 -13 -32 -3 -53 16 -35 58 -31 76 7 21 44 59 68 108 68 l44 0 0 -65 0 -65
-33 0 c-37 0 -77 -24 -77 -46 0 -8 12 -19 26 -24 22 -9 24 -13 13 -26 -7 -8
-25 -22 -40 -29 -25 -14 -28 -12 -58 20 -28 31 -37 35 -80 35 -55 0 -81 -20
-81 -62 0 -65 42 -93 154 -102 l79 -7 79 80 c44 45 87 81 96 81 47 1 67 55 24
66 -14 4 -17 17 -17 75 l0 69 35 0 c19 1 46 7 60 15 14 8 40 14 58 15 25 0 35
5 39 20 3 11 10 21 17 21 11 2 -57 17 -109 24 -16 3 -41 -1 -55 -7z m-160
-302 c0 -3 -4 -8 -10 -11 -5 -3 -10 -1 -10 4 0 6 5 11 10 11 6 0 10 -2 10 -4z
m-65 -136 c-3 -5 -18 -10 -33 -9 l-27 1 25 8 c35 11 42 11 35 0z"/>
</g>
</svg>
