<?xml version="1.0" standalone="no"?>
<!DOCTYPE svg PUBLIC "-//W3C//DTD SVG 20010904//EN"
 "http://www.w3.org/TR/2001/REC-SVG-20010904/DTD/svg10.dtd">
<svg version="1.0" xmlns="http://www.w3.org/2000/svg"
 width="2400.000000pt" height="1295.000000pt" viewBox="0 0 2400.000000 1295.000000"
 preserveAspectRatio="xMidYMid meet">

<g transform="translate(0.000000,1295.000000) scale(0.100000,-0.100000)"
fill="#127384" stroke="none">
<path d="M11360 11489 c-1105 -40 -2036 -142 -3175 -349 -1611 -293 -3002
-750 -4099 -1345 -77 -41 -141 -75 -143 -75 -2 0 -68 -37 -146 -82 -912 -524
-1601 -1098 -2061 -1718 -730 -984 -873 -2108 -403 -3160 401 -897 1282 -1749
2524 -2440 143 -79 705 -361 863 -432 678 -306 1334 -532 2125 -733 1361 -346
2667 -546 4090 -625 1440 -79 2979 6 4425 246 1420 236 2592 553 3612 978 86
36 195 83 243 105 48 23 89 41 91 41 2 0 70 32 151 71 82 39 180 87 218 105
162 77 496 260 750 411 236 141 626 409 830 572 456 364 855 778 1096 1137
134 200 257 418 315 558 76 181 96 233 132 348 285 891 131 1851 -429 2673
-191 279 -333 447 -605 717 -406 401 -818 711 -1434 1080 -180 108 -674 367
-870 456 -25 11 -81 37 -125 57 -261 121 -701 299 -980 397 -1128 399 -2669
733 -4115 892 -942 104 -2005 147 -2880 115z m1640 -1238 c107 -6 256 -15 330
-20 74 -6 200 -15 280 -21 256 -17 383 -28 460 -40 41 -6 129 -15 195 -20 66
-5 147 -14 180 -20 58 -10 154 -21 340 -40 90 -9 167 -19 300 -40 39 -6 111
-15 160 -19 50 -5 126 -15 170 -24 79 -15 140 -25 283 -46 190 -28 223 -34
305 -52 49 -10 105 -19 126 -19 21 0 51 -4 67 -9 16 -5 61 -14 99 -21 39 -7
108 -21 155 -31 87 -19 128 -28 235 -49 243 -46 888 -207 1145 -285 63 -19
167 -51 230 -69 161 -49 483 -160 610 -211 19 -8 112 -44 205 -81 94 -36 194
-77 223 -90 29 -13 55 -24 57 -24 3 0 39 -16 81 -35 41 -19 77 -35 79 -35 6 0
273 -128 400 -192 151 -76 264 -136 385 -206 52 -30 115 -66 140 -80 152 -86
517 -335 675 -460 214 -171 513 -462 649 -632 143 -180 325 -487 378 -640 9
-25 27 -74 40 -110 25 -66 66 -232 87 -346 14 -79 14 -431 0 -508 -41 -219
-75 -353 -115 -450 -14 -33 -33 -79 -42 -101 -91 -221 -280 -502 -495 -735
-253 -274 -537 -511 -891 -745 -138 -91 -391 -245 -401 -245 -3 0 -22 -11 -43
-24 -140 -90 -593 -312 -912 -448 -91 -38 -178 -75 -195 -83 -16 -7 -61 -25
-100 -39 -38 -15 -79 -31 -90 -36 -18 -9 -75 -30 -375 -139 -396 -145 -1117
-349 -1480 -420 -101 -20 -159 -32 -245 -51 -22 -4 -67 -14 -100 -20 -33 -7
-87 -18 -120 -26 -33 -7 -96 -20 -140 -29 -44 -8 -102 -19 -130 -25 -27 -5
-70 -12 -95 -15 -85 -11 -165 -24 -280 -45 -63 -11 -140 -25 -170 -30 -137
-22 -199 -32 -255 -40 -124 -18 -222 -32 -290 -41 -165 -21 -234 -30 -305 -39
-82 -12 -183 -24 -330 -40 -52 -6 -133 -15 -180 -21 -47 -5 -137 -14 -200 -20
-63 -5 -158 -14 -210 -19 -52 -6 -167 -14 -255 -20 -88 -5 -205 -14 -260 -20
-296 -31 -1933 -45 -2375 -21 -113 6 -281 16 -375 21 -93 5 -219 14 -280 19
-110 10 -275 24 -480 41 -60 5 -146 14 -190 19 -44 6 -123 16 -175 21 -252 27
-347 38 -510 60 -122 17 -220 30 -300 40 -41 5 -103 13 -137 19 -35 6 -90 16
-123 21 -33 6 -87 15 -120 20 -33 6 -87 15 -120 20 -33 6 -88 15 -122 20 -35
6 -88 15 -118 20 -30 5 -82 14 -115 19 -80 13 -408 76 -520 101 -49 11 -133
29 -185 40 -52 12 -149 34 -215 50 -66 16 -138 31 -159 35 -22 4 -92 21 -155
39 -64 18 -141 39 -171 46 -338 79 -1199 371 -1507 511 -23 10 -44 19 -47 19
-3 0 -29 11 -58 24 -29 13 -80 36 -113 51 -165 73 -215 97 -405 192 -350 175
-611 326 -870 501 -332 225 -555 408 -785 643 -178 182 -254 275 -380 464
-159 239 -249 440 -318 710 l-40 160 -1 265 c-1 276 0 287 51 500 150 630 686
1265 1532 1815 137 89 327 205 336 205 3 0 22 11 43 24 60 39 193 110 412 219
187 93 271 134 400 190 25 10 73 32 108 48 35 16 66 29 68 29 3 0 24 8 47 19
23 10 96 40 162 66 66 25 129 50 140 55 18 9 77 31 375 139 168 61 554 184
730 233 58 15 195 51 305 79 110 28 245 62 300 76 55 14 123 29 150 33 28 5
163 32 300 60 138 29 275 55 305 59 30 4 96 16 145 25 50 10 135 26 190 36 55
11 138 27 185 36 80 15 128 22 295 44 76 10 155 22 250 40 33 7 94 16 135 20
41 5 109 14 150 19 240 31 396 50 510 61 52 5 127 14 165 20 39 6 129 15 200
20 72 6 180 15 240 20 61 6 175 15 255 21 80 5 201 14 270 19 69 6 223 13 342
17 119 5 220 11 224 16 11 10 1544 0 1784 -12z"/>
<path d="M5060 8525 c0 -70 4 -108 13 -116 6 -6 73 -41 147 -78 l135 -66 3
-2437 2 -2438 730 0 730 0 2 1142 c2 818 6 1142 14 1145 6 2 65 -67 130 -153
65 -86 158 -206 205 -268 47 -61 152 -199 234 -306 82 -107 199 -260 260 -340
61 -80 178 -233 260 -340 82 -107 199 -260 260 -340 61 -80 177 -231 258 -336
80 -105 153 -194 162 -198 28 -10 1635 -7 1635 4 0 8 -220 320 -700 995 -58
83 -284 400 -500 705 -217 305 -481 677 -587 825 -106 149 -193 279 -193 290
0 11 125 206 277 433 493 732 632 938 981 1454 188 279 342 512 342 518 0 7
-256 9 -807 8 l-808 -3 -120 -161 c-66 -89 -185 -250 -265 -359 -80 -108 -204
-276 -276 -373 -72 -98 -232 -314 -355 -482 -124 -168 -262 -356 -308 -417
-46 -62 -87 -110 -92 -107 -5 3 -9 406 -9 955 l0 949 -880 0 -880 0 0 -105z"/>
<path d="M11127 8623 c-9 -8 -9 -176 -1 -198 4 -9 65 -45 136 -81 98 -49 131
-71 138 -90 6 -16 10 -913 10 -2445 l0 -2419 733 2 732 3 0 2615 0 2615 -871
3 c-479 1 -874 -1 -877 -5z"/>
<path d="M15660 8527 c0 -86 3 -106 18 -119 9 -9 68 -41 130 -73 107 -54 112
-58 112 -88 0 -18 -360 -1112 -800 -2432 -440 -1320 -800 -2406 -800 -2413 0
-10 144 -12 705 -10 l705 3 93 275 c89 260 181 529 416 1210 99 288 209 609
425 1235 203 591 241 697 251 697 10 0 26 -45 195 -537 187 -544 313 -910 411
-1195 218 -633 326 -947 429 -1250 122 -355 147 -422 163 -432 7 -4 326 -8
710 -8 l697 0 0 24 c0 13 -32 115 -70 227 -39 112 -218 645 -399 1184 -181
539 -343 1021 -361 1070 -17 50 -170 504 -340 1010 -170 506 -370 1100 -445
1320 l-135 400 -1055 3 -1055 2 0 -103z"/>
</g>
</svg>
